<?xml version="1.0" encoding="UTF-8"?>
<svg id="Capa_1" data-name="Capa 1" xmlns="http://www.w3.org/2000/svg" viewBox="0 0 458.41 458.81">
  <defs>
    <style>
      .cls-1 {
        fill: #3aaa35;
      }

      .cls-1, .cls-2 {
        stroke: #1d1d1b;
        stroke-miterlimit: 10;
      }

      .cls-2 {
        fill: #fff;
      }
    </style>
  </defs>
  <path class="cls-2" d="M457.91,229.21c0,126.31-102.4,228.71-228.71,228.71-41.09,0-79.65-10.84-112.98-29.81-16.35-9.31-113.59,29.81-113.59,29.81,0,0,38.71-96.33,27.63-115.8C11.32,308.8.5,270.27.5,229.21.5,102.9,102.9.5,229.21.5s228.71,102.4,228.71,228.71Z"/>
  <path class="cls-1" d="M416.16,225.96c0,104.22-84.01,188.7-187.65,188.7-33.71,0-65.35-8.94-92.7-24.59-13.42-7.68-78.01,13.01-78.01,13.01,0,0,16.57-67.9,7.48-83.96-15.54-27.48-24.42-59.28-24.42-93.15,0-104.22,84.01-188.7,187.65-188.7s187.65,84.48,187.65,188.7Z"/>
  <path class="cls-2" d="M114.86,197.16c18.92,47.8,52.44,88.4,95.59,116.36,19.96,12.93,43.74,22.62,60.19,26.81,27.36,6.97,48.32-2.61,50.47-3.65,0,0,24.44-9.03,25.59-28.09s3.53-23.21-7.32-27.71c-9.16-3.8-35.54-17.33-43.53-21.45-1.53-.79-3.22-1.2-4.94-1.2h-2.63c-3.06,0-5.98,1.3-8.02,3.57l-20.77,23.06c-1.43,1.59-3.44,2.61-5.57,2.61-1.13,0-2.4-.26-3.73-1.01-1.5-.84-26.06-14.43-45.29-32.65-16.66-15.77-29.5-34.26-31.59-37.41-1.34-2.02-2.1-4.8-2.32-7.22-.15-1.58.1-3.24,1.32-4.37,2.32-2.14,12.99-14.8,18.04-20.82,1.72-2.05,2.61-4.65,2.51-7.32l-.24-6.62c-.15-3.5-4.55-10.33-6.71-14.94-1.17-2.49-2.22-5.03-3.17-7.61l-8.95-25.8c-1.03-3.16-10.97-6.77-15.01-6.77h-12.66c-2.89,0-5.31,1.55-7.68,3.2-8.89,6.23-25.5,27.47-27.2,44.33-1.42,14.12-.93,18.28-.63,21,.09.79,1.31,5.77,1.58,6.52.46,1.3,1.35,3.77,2.69,7.16Z"/>
</svg>